<svg xmlns="http://www.w3.org/2000/svg" viewBox="0 0 785.46 451.24"><defs><style>.cls-1{fill:#fff;}</style></defs><title>資產 2</title><g id="圖層_2" data-name="圖層 2"><g id="圖層_2-2" data-name="圖層 2"><path class="cls-1" d="M500.18,211.18c20.43-17.36,23.25-28.65,21.82-35.85-1.24-6.2-5.83-10.35-3.9-16.36,2.41-7.51,11.4-6.68,14-14,2.77-7.73-5.57-13.11-3.9-21,2.07-9.83,17.57-14.35,21.82-15.59C603.55,92.74,747,203.92,740.19,233a46.11,46.11,0,0,1-2.33,7c-5.24,12-14.68,17.73-24.16,24.16C694,277.56,700.92,275.62,675.51,293c-10.84,7.42-20.06,13.22-26.49,17.14Z"/><path d="M441,225.2c-7-3.38-22.36-10.25-29.41-25.91-5.82-12.91-3.6-26.51-1-35.65a103.13,103.13,0,0,1,33.61,1.07c25.79,5.2,42.69,19.32,52.89,27.77,25.95,21.47,53.13,41.44,79,63,24,20,62.05,44.48,122.05,60.1,1.84.39,11.61,2.64,17,11.8,5.24,8.8,4.37,20.47-2.24,29.5a24.33,24.33,0,0,1-7.07,12C671.18,399.7,542.39,304.38,522,289.1,487.82,252.39,460.45,234.65,441,225.2Z"/><path class="cls-1" d="M710.36,362.79C694.3,377,656,357.62,616.79,337.85a566.94,566.94,0,0,1-89.08-56.07c-37.38-35-65.49-52.47-85-62-7-3.4-22.3-10.36-31.28-25-7.41-12-4.37-28.28-2.09-33.69s21.93-2,35,1.13c24.68,5.89,39.3,18.72,50.06,26.88,27.38,20.77,51.13,45.12,78.46,66,25.31,19.32,64,41.74,122,58.68l.78.2a39,39,0,0,1,18.73,11.6C721.57,334.56,719.79,354.47,710.36,362.79Z"/><path d="M664.6,305.47c-38.18-14.81-57.11-24-84.19-43.4-24.56-17.56-47.5-40-71.35-59.7.59-2-.78,1.87.61-1.89,3.64-9.88,8.51-19.61,10-21.25,5.07-5.62,36.65,7,170.66,105.2Z"/><path d="M578.89,194.81l-17.15,35.85v7.79l47.54,31.95,7-2.34,27.27-41.3-5.45-13.24-49.24-23.26Z"/><path class="cls-1" d="M589.05,201.84s-16.32,33.58-14.84,35,33.51,21,33.51,21l20.16-31-3.44-8.36Z"/><path d="M545.38,120.78c-2.15-.48,187.8,80.27,166.76,129.36,0,0,32,.78,6.23-40.52C718.37,209.62,676.29,150.4,545.38,120.78Z"/><path class="cls-1" d="M72.89,175.82q-3.28,27.38-17.3,61-16.47,39.6-31.89,39.79-9.32.09-22.67-10a2.68,2.68,0,0,1-1-2.17q0-3.29,3-3.29a3.34,3.34,0,0,1,1.5.38q8.1,4.14,13.83,4.23,12.51.38,27.56-37.15,14.39-36.21,15.42-64.9.28-9.31-9.21-9.32a21,21,0,0,0-3.29.29q-7.35,1-16.65,11.66a68.61,68.61,0,0,0-14.58,27,13.65,13.65,0,0,0-.57,3.77,9.94,9.94,0,0,0,2.36,6.39l4.32,4.33a2.88,2.88,0,0,1,1,1.88c0,1.19-.94,1.79-2.83,1.79a4.22,4.22,0,0,1-1.88-.38q-8.09-4.8-11.1-7.81a11.66,11.66,0,0,1-3.57-8.37q0-4.41,3.39-12.13a83.27,83.27,0,0,1,14.58-22.29q9.21-10.44,16.55-13.55,3.39-1.5,13.92,1.7a2.34,2.34,0,0,1,2-.85q3.66,0,14.39,7.05Q75,157.95,72.89,175.82Z"/><path class="cls-1" d="M152.82,201.4a82.72,82.72,0,0,1-3.29,23.52q-1,3.38-2.82,3.38-1.32,0-5.83-3.76c-1.51-1.25-1.88-3-1.13-5.36q2.64-8.56,2.63-13.73c0-1.19-.25-1.79-.75-1.79q-1.12,0-3.67,3.39a179,179,0,0,0-29.25,57.18q-3.1,10.06-5.26,10.07-.86,0-7.44-3.29-3.2-1.61-2.16-6.21,7.43-32.55,16-54.93A107.62,107.62,0,0,0,101,219.93a2.36,2.36,0,0,1-2.07,1.13c-1.07,0-1.6-.47-1.6-1.41a3.32,3.32,0,0,1,.75-1.88q4.61-5.55,12.32-16.93,2.35-4.14,4.71-4.14,1.68,0,6.86,2.63,2.93,1.51.94,4-2.07,2.73-7.8,19.28-5.46,16.08-7.53,25.21a266,266,0,0,1,29.07-50.32q3.1-4.14,5-4.14,1.69,0,4.61,2.26,3.94.47,5,1.22C152.29,197.64,152.82,199.15,152.82,201.4Z"/><path class="cls-1" d="M199.65,208.17q-2.27,12.71-11.76,42.24a63.74,63.74,0,0,0,7.52-8.94,1.8,1.8,0,0,1,1.32-.85c1,0,1.13.88.38,2.64q-.48,1-7.9,12.88a92.71,92.71,0,0,0-8.28,16,3.1,3.1,0,0,1-3.11,2.17q-2.25,0-6.11-2.17c-1.63-.87-2.45-1.53-2.45-2a7.42,7.42,0,0,1,1-2.45q5.08-8.93,11.29-29.91,5.92-20.31,6.68-30.19c.18-2.82-.1-4.23-.85-4.23-.57,0-1.57.69-3,2.07l-5.83,5.45c-2.07,1.88-3.11,2-3.11.28a3.42,3.42,0,0,1,.85-1.88,132.24,132.24,0,0,1,9.41-11.75,4.15,4.15,0,0,1,2.91-1.6c1,0,2.48.69,4.42,2.07a37.14,37.14,0,0,1,4.8,1.41q2.16,1.32,2.16,4.89A22.7,22.7,0,0,1,199.65,208.17ZM212.91,167a3.19,3.19,0,0,1,1.5,2.54q0,2.73-8.09,8.46Q201,181.66,196,180.62a12.4,12.4,0,0,1-4.89-2.07,4.23,4.23,0,0,1-1-1.18,1.07,1.07,0,0,1-.14-1c.19-.25.56-.31,1.13-.18a116.19,116.19,0,0,0,11.38-10.82c1.44-1.63,2.47-2.45,3.1-2.45Q207.27,162.93,212.91,167Z"/><path class="cls-1" d="M258.51,250.78q.27,11.29-12.51,15.43a18.68,18.68,0,0,1-3,5.45,9.7,9.7,0,0,1-6.4,2.64,27.24,27.24,0,0,1-5.83-.28L217.12,272a3.12,3.12,0,0,1-2.72-2.73c.25-1.69,2-2.7,5.26-3q6.68-.46,19.75-2.35a9.71,9.71,0,0,0,7-5.55,11.62,11.62,0,0,0,1.22-5.55q0-5.92-5.93-20.88-5.83-14.58-5.45-19.47Q237,200.65,257.94,196c1.38-.31,2.07.19,2.07,1.51,0,.75-.5,1.35-1.5,1.78q-10.15,4.42-10.16,10.91a27.24,27.24,0,0,0,.94,6.35q.94,3.81,5.64,18.3Q258.41,245.33,258.51,250.78Zm15.05-54q0,4.25-2.26,13.55-.84,3.19-1.88,4.14a11.78,11.78,0,0,1-3.2,1.41,18.33,18.33,0,0,1-4.33,1.31c-.94,0-1.41-.62-1.41-1.88a13.19,13.19,0,0,1,.38-2.72q2.25-9.32,1.74-12.94t2.12-4.56q4.61-2.35,5.92-2.35C272.58,192.75,273.56,194.1,273.56,196.79Z"/><path class="cls-1" d="M370.32,126.16a2.62,2.62,0,0,1,1.23,2.07c0,1.12-.72,1.69-2.17,1.69a4.11,4.11,0,0,1-2-.57c-2.88-1.44-5.05-2.16-6.49-2.16q-5.75,0-12.79,11.48-24.84,40.44-36.78,105.91,15.33-29.45,35.08-47,4.23-3.77,6.21-3.77c.38,0,1.94.88,4.71,2.64a36.06,36.06,0,0,1,5.64,2.63q2.44,2.16,2.44,7.53c0,1-.06,2.1-.18,3.29q-1.61,16.74-9.6,40.54,2.91-4,9.22-11.57a4,4,0,0,1,2.54-1.6c.69,0,1,.41,1,1.22a5.83,5.83,0,0,1-1.22,3.2q-5.46,7.91-14.48,23.14c-.51,1-1.73,3.64-3.67,7.9-.82,2-1.95,3-3.39,3q-2.44,0-7.05-3.29-1.89-1.32-.66-4.14,16.17-40.63,17.12-60.67c.19-3.82-.35-5.74-1.6-5.74-.82,0-2.54,1.07-5.18,3.2q-7.23,5.84-17.77,20.69a174.1,174.1,0,0,0-21.54,40q-2.07,5.83-3.86,5.83c-1.06,0-3.16-1.28-6.3-3.86-1.57-1.31-2.1-3.51-1.6-6.58q10.9-59.73,28.41-102,13-31.52,23.42-41.2a7.74,7.74,0,0,1,5.17-2.45c1.75,0,4,1,6.68,3Z"/><path class="cls-1" d="M348.66,334.84a10.77,10.77,0,0,0-2.35-7,43.4,43.4,0,0,0-7.53-6.49q-4.42-10.81-14.86-11-5.46-.09-21,4.42-6.39-6.87-8.93-6.87c-1.26,0-1.88,1.26-1.88,3.77a33.21,33.21,0,0,1-1.13,7.52,179.68,179.68,0,0,0-25.49,12.23q-13.26,7.62-18.06,12-7,6.5-7,12a9.44,9.44,0,0,0,1.22,4.51q8.28,16.36,11.2,16.37c1.38,0,2.07-.88,2.07-2.63a4.84,4.84,0,0,0-.38-1.79c-1.07-2.7-1.66-4.3-1.79-4.8a11.54,11.54,0,0,1-.66-3.85q0-13.74,35.37-29.63-11.19,43.83-34.14,96.69c-1.82.44-2.82,1.19-3,2.26q-.37,2,2.44,4.7,4.51,4.14,7.62,4.14a6.13,6.13,0,0,0,4.33-2.07,41.58,41.58,0,0,1,10.15-7.34q5.46-2.91,7.81-2.63c2.2.19,3.29-.57,3.29-2.26,0-1.32-.72-3.32-2.16-6-1.76-3.32-3.54-5.14-5.36-5.45q-1.61-.19-4.33,1.41a63.3,63.3,0,0,1-5.55,3.19q13.17-33.94,28.88-90.67a83.82,83.82,0,0,1,28.12-6.39,15.31,15.31,0,0,1,6.11.09q6.58,1.61,5.46,9.59-2,14.58-12.32,29.73-8.08,11.94-17.12,18.81Q303.23,385,294.67,385q-5.18,0-5.18,1.88c0,.82.76,1.54,2.26,2.16q11.47,4.62,14.49,4.61a18.05,18.05,0,0,0,10.53-3.85q7.62-5.46,17.92-21.17t12.74-25.86A35.14,35.14,0,0,0,348.66,334.84Z"/><path class="cls-1" d="M410.17,366.16q-3.76-2-5.08-2a5.65,5.65,0,0,0-3,1.13q-2.64,1.69-6.87,11.29-2.54,5.73-14.67,24.64-13.73,21.45-21,29.16-3.39,3.48-4.89,3.48c-1.13,0-1.7-1.35-1.7-4.05q.09-12.31,5.83-31.88,5.28-18.06,10-25.21l2.07-3.1c0-.57-.44-1.13-1.31-1.7-3.26-2-5.74-3-7.43-3a4.72,4.72,0,0,0-3.58,2.07,45.92,45.92,0,0,0-6.11,11.38q-.94,2.36-6,9.79c-.69,1.06-.79,1.78-.28,2.16s1.06.13,1.88-.56q3.19-2.92,4.8-4.42Q345.36,403.13,343,430a15.76,15.76,0,0,0-.19,2.26q0,5.64,6.5,6.77a12.53,12.53,0,0,0,6.2,2.17q3.19,0,5.93-3.11,12.32-14,30.47-43.55a232.85,232.85,0,0,0-9.5,35.65c-.62,3.51,0,6,2,7.34,3.63,2.44,6.08,3.67,7.33,3.67s2.26-1.57,3-4.71q1.89-7.42,7.9-21.16a3.13,3.13,0,0,0,.29-1.22c0-1.19-.47-1.79-1.41-1.79-.69,0-1.2.44-1.51,1.32q-3.76,7.14-6.39,11.75,6.19-31.32,18.71-54.55a2.83,2.83,0,0,1,.94-1c.44-.32.66-.57.66-.76C413.93,368.45,412.68,367.47,410.17,366.16Z"/><path class="cls-1" d="M742.72,366.17l-.46.43C793.25,329.84,805.94,305.38,742.72,366.17Z"/><path class="cls-1" d="M471.65,431.18a96.87,96.87,0,0,0,10.48-18.93,116.82,116.82,0,0,0,9.12-35.84q.75-8-7.62-12-4.42-2.62-6.49-2.63-4,0-9.12,4.61a135.15,135.15,0,0,0-20.32,23.61q-4.8,6.87-14.58,23.42,11.38-66.78,36.78-107.89Q477,294,482.88,294c1.44,0,3.6.76,6.49,2.26a3.44,3.44,0,0,0,1.78.57c1.51,0,2.26-.63,2.26-1.88a2.38,2.38,0,0,0-1.13-1.89q-4.78-3.85-9.5-7.71-4-3.11-6.68-3.1c-1.69,0-3.44.84-5.26,2.54q-10.35,9.49-23.33,41.19-17.2,42.15-28.22,102.06a17.93,17.93,0,0,0-.47,3.67,6.62,6.62,0,0,0,1.89,4.89c.43.37,2.25,1.63,5.45,3.76a3.91,3.91,0,0,0,2,.85c1.07,0,1.95-1.17,2.64-3.48q5.73-18.25,18.34-37.91,11.94-18.43,23.52-28.41a6.93,6.93,0,0,1,4.23-2q3.28,0,3.29,4.89,0,12.6-6,28.59-5.26,14.2-11.76,22.48-3.57,4.51-7.43,4.52t-9.5-4.7a4.68,4.68,0,0,0-3.1-1.32c-1.07,0-1.6.47-1.6,1.41a4.89,4.89,0,0,0,1.22,2.73,80.28,80.28,0,0,0,7.36,8.39h0s.38.38,1.07,1a21.58,21.58,0,0,0,5.54,3.84,33.7,33.7,0,0,0,11,4c47,7.83,167.83,24.42,275.4-78.64C683.63,408.86,574.38,467.35,471.65,431.18Z"/><path class="cls-1" d="M244.61,60.5l-1.52,2.57q-18-2.74-29.07-7.56A144.61,144.61,0,0,1,183.19,63l-1.3-2.57a155.32,155.32,0,0,0,28.65-6.5,61.36,61.36,0,0,1-12.66-8.19,91.43,91.43,0,0,1-12.44,5.48L183.72,49a71.63,71.63,0,0,0,12.16-5,45.17,45.17,0,0,1-4-4l2.21-1.72a50.52,50.52,0,0,0,4.26,4.32,43.84,43.84,0,0,0,8.36-6.39l2.43,1.44a41.33,41.33,0,0,1-3.52,3.09h27.67v2.5A56.3,56.3,0,0,1,217.47,54,117.5,117.5,0,0,0,244.61,60.5Zm-2-34h-2.88v-7.7H187v7.7h-2.88V16.28H242.6Zm-45.35-1.87a51.94,51.94,0,0,1-10.16,12.73l-2.25-1.72a43.27,43.27,0,0,0,9.88-12.38ZM239.79,2.46a302.78,302.78,0,0,1-52.42,4.18L186,4q34-.24,52-4ZM200.63,13l-2.47,1.73a22.08,22.08,0,0,0-5.09-5L195.28,8A34.62,34.62,0,0,1,200.63,13Zm28.79,30.24H202.07l-1.73,1.16a59.78,59.78,0,0,0,13.75,8.19A52,52,0,0,0,229.42,43.21ZM227.2,27.46c-.4,2.81-.94,4.66-1.63,5.53a4.75,4.75,0,0,1-3.25,1.62q-2.22.3-10.3.3-5.49,0-7-.18a3.71,3.71,0,0,1-2.46-1.24,4.19,4.19,0,0,1-.95-2.87V21.9h2.88v8.44c0,.87.3,1.41.9,1.63s3.08.34,7.43.34a72.27,72.27,0,0,0,9.36-.34c1.21-.22,2-2.13,2.28-5.74ZM219,27.39l-2.22,1.72a35.3,35.3,0,0,0-6.64-7l2.11-1.58A46.35,46.35,0,0,1,219,27.39Zm-.28-14.14-2.82,1.23a31.8,31.8,0,0,0-4.46-6L214,7.21A57.82,57.82,0,0,1,218.7,13.25Zm19-6.61a63.65,63.65,0,0,1-6.86,7.91l-2.32-1.65a38.43,38.43,0,0,0,6.57-7.63Zm3.16,28.52-2.46,1.44A63.75,63.75,0,0,0,229.7,24l2.39-1.44A90.68,90.68,0,0,1,240.88,35.16Z"/><path class="cls-1" d="M331,15.36l-1.45,2.43c-1.64-.56-3.29-1.21-4.95-1.93v42a5.62,5.62,0,0,1-1.15,3.43q-1.14,1.56-5.32,1.56l-4.33-.1-.8-2.74q1.75.16,6.18.17c1.69,0,2.53-.79,2.53-2.39V18.07H301.19V62.23h-2.88V18.07h-20.5V62.79h-2.88V16l-4.39,1.65-1.66-2.29a47.87,47.87,0,0,0,17.48-9l2,1.73a52.92,52.92,0,0,1-12.34,7.41h22.25V4.78H270.47V2.11h58.6V4.78H301.19V15.5H323.8a61.32,61.32,0,0,1-11.5-7.06l2-1.8A49.58,49.58,0,0,0,331,15.36ZM295.67,52.49l-1.89,1.9a54.22,54.22,0,0,0-5.17-5.77,39.67,39.67,0,0,1-6.05,6.68l-1.72-1.65a38.21,38.21,0,0,0,6-6.68,66.24,66.24,0,0,0-6.36-5.06L281.82,40q3.35,2.4,6.37,5a37.61,37.61,0,0,0,3.09-6l2.28.88A53,53,0,0,1,290,46.62,66.21,66.21,0,0,1,295.67,52.49Zm0-17.93L294,36.46a47.51,47.51,0,0,0-4.82-5.14,32.18,32.18,0,0,1-5.52,6.12l-1.9-1.58a26.29,26.29,0,0,0,5.7-6.12,46.1,46.1,0,0,0-6.33-4.81l1.37-1.73a61.89,61.89,0,0,1,6.19,4.61,41.37,41.37,0,0,0,3.09-6.26l2.29.84a39.8,39.8,0,0,1-3.52,7A48.46,48.46,0,0,1,295.67,34.56Zm23.17,17.93L317,54.39a56.79,56.79,0,0,0-5.2-5.77,40.1,40.1,0,0,1-6,6.68L304,53.65A38.61,38.61,0,0,0,310,47a61.44,61.44,0,0,0-6.33-5.06L305,40q3.33,2.4,6.32,5a36.88,36.88,0,0,0,3.1-6l2.32.88a50.83,50.83,0,0,1-3.62,6.79A59.76,59.76,0,0,1,318.84,52.49Zm0-17.93-1.65,1.9a51.84,51.84,0,0,0-4.82-5.14,32.9,32.9,0,0,1-5.55,6.12L305,35.86a26.47,26.47,0,0,0,5.69-6.12,47.5,47.5,0,0,0-6.36-4.81l1.37-1.73a57.59,57.59,0,0,1,6.19,4.61,37.13,37.13,0,0,0,3.09-6.26l2.32.84a42.75,42.75,0,0,1-3.52,7A49.86,49.86,0,0,1,318.84,34.56Z"/><path class="cls-1" d="M384.43,7.42h-9.28v3.34h-2.88V7.42H354.62V5.06h17.65V.39h2.88V5.06h9.28Zm-1.93,21H361.75V62.72H358.8V13.32h23.7Zm-3-8.61V15.64H361.75v4.12Zm0,6.26V22H361.75v4Zm26.72,9.56H387.59V39.2h15V50.7H388.82q7,5.94,13.05,7.62l-1.3,2.39a38.13,38.13,0,0,1-12.91-8.43V62.72h-3V52.28q-6.07,4.95-17.47,9L365.52,59A68.27,68.27,0,0,0,383.2,50.7H369.8V39.2h14.91V35.58H365.87V33.29h18.84v-3.9h2.88v3.9h18.67ZM384.71,48.34V41.48h-12v6.86Zm-2.5-2.81L380.56,47a31.92,31.92,0,0,0-5.27-2.74l1.51-1.51A30.32,30.32,0,0,1,382.21,45.53ZM417.34,7.42H399.76v3.34h-2.89V7.42h-9.35V5.06h9.35V.39h2.89V5.06h17.58ZM399.69,48.34V41.48h-12.1v6.86Zm13.39,9.07q0,5.1-4.81,5.1h-4.54l-1-2.46,3.45.07a18,18,0,0,0,3-.2c.71-.13,1.07-.66,1.07-1.6V28.37H389.7v-15h23.38ZM397,44.51A26.54,26.54,0,0,1,391.21,47L390,45.25a25.34,25.34,0,0,0,5.63-2.46Zm13.39-24.75V15.64H392.52v4.12Zm0,6.26V22H392.52v4Z"/><path class="cls-1" d="M456.27,38.25a134.16,134.16,0,0,1-12.93,24.61l-2.46-1.93a138.45,138.45,0,0,0,13-24.61Zm-.21-11-1.86,2.42a72.75,72.75,0,0,0-13.11-9.28l1.9-2.21A93,93,0,0,1,456.06,27.25Zm1.59-17.86-1.94,2.07A104.62,104.62,0,0,0,442.39,2l1.79-2A95.81,95.81,0,0,1,457.65,9.39Zm46.16-3.91h-15.4v9.81h12.16v47.5h-2.88v-5.1H464.43v5.1h-2.88V15.29h13.53V5.48h-16.2V2.88h44.93Zm-6.12,49.68V35.44H489a3.29,3.29,0,0,1-2.53-1.07,3.78,3.78,0,0,1-1-2.66V17.86H478q-.08,12.27-10.66,21.55l-2.18-2q9.78-7.9,9.95-19.58H464.43v37.3Zm-3.24-9H467.67v-2.6h26.78Zm-8.93-30.87V5.48H478v9.81Zm12.17,17.48V17.86h-9.28V31a1.85,1.85,0,0,0,.51,1.22,1.42,1.42,0,0,0,1,.58Z"/><path class="cls-1" d="M547.32,55.09h-2.89V49.25H533V56.6h-2.88V5.48h17.16Zm-2.89-8.47V8.16H533V46.62Zm45.92,1.12c-.61,5.82-1.47,9.76-2.59,11.85s-3.25,3.13-6.41,3.13H562.12q-3.45,0-4.82-1.43A6,6,0,0,1,555.93,57V2.11h30.55V33.43H558.81V57.9c0,1.43.89,2.15,2.67,2.15h20.6a3.67,3.67,0,0,0,3.49-2.11q1.08-2.11,2-11.32Zm-20.6-17v-26H558.81v26Zm13.85,0v-26h-11v26Z"/></g></g></svg>