<svg xmlns="http://www.w3.org/2000/svg" viewBox="0 0 182.27 79.92"><defs><style>.cls-1{fill:#fff;}</style></defs><title>資產 3</title><g id="圖層_2" data-name="圖層 2"><g id="圖層_2-2" data-name="圖層 2"><path class="cls-1" d="M116.07,24.21c4.74-4,5.39-6.64,5.06-8.31-.29-1.44-1.35-2.41-.9-3.8.56-1.74,2.64-1.55,3.25-3.26s-1.29-3-.9-4.88c.48-2.28,4.07-3.33,5.06-3.61,12.41-3.62,45.69,22.18,44.12,28.93a11,11,0,0,1-.54,1.63c-1.21,2.77-3.41,4.11-5.61,5.6-4.58,3.11-3,2.66-8.86,6.69-2.51,1.72-4.65,3.07-6.14,4Q133.33,35.71,116.07,24.21Z"/><path d="M102.32,27.47c-1.62-.79-5.18-2.38-6.82-6a12.1,12.1,0,0,1-.23-8.28,24,24,0,0,1,7.8.25,27.19,27.19,0,0,1,12.27,6.44c6,5,12.33,9.62,18.34,14.63,5.56,4.64,14.39,10.32,28.32,14A6.17,6.17,0,0,1,166,51.18a6.24,6.24,0,0,1-.52,6.85,5.51,5.51,0,0,1-1.64,2.77c-8,7.16-37.93-15-42.66-18.5C113.2,33.78,106.85,29.66,102.32,27.47Z"/><path class="cls-1" d="M164.84,59.4c-3.73,3.29-12.62-1.2-21.71-5.79a132,132,0,0,1-20.67-13c-8.68-8.13-15.2-12.18-19.73-14.38-1.63-.79-5.18-2.4-7.26-5.79-1.72-2.8-1-6.57-.49-7.82s5.09-.47,8.13.26c5.73,1.37,9.12,4.34,11.61,6.24,6.36,4.82,11.87,10.47,18.21,15.31C138.8,38.9,147.79,44.1,161.24,48l.18,0a9.07,9.07,0,0,1,4.35,2.69C167.44,52.85,167,57.47,164.84,59.4Z"/><path d="M154.22,46.1C145.36,42.66,141,40.52,134.69,36c-5.7-4.07-11-9.27-16.56-13.85.14-.47-.18.43.14-.44a24.93,24.93,0,0,1,2.32-4.93c1.17-1.3,8.5,1.62,39.6,24.41Z"/><path d="M134.33,20.42l-4,8.32v1.8l11,7.42,1.63-.54,6.33-9.59-1.27-3.07-11.42-5.4Z"/><path class="cls-1" d="M136.69,22.05s-3.79,7.79-3.44,8.13S141,35.06,141,35.06l4.68-7.2-.8-1.93Z"/><path d="M126.56,3.24c-.5-.11,43.58,18.62,38.69,30,0,0,7.42.18,1.45-9.41C166.7,23.85,156.93,10.11,126.56,3.24Z"/><path class="cls-1" d="M16.92,16a54,54,0,0,1-4,14.14q-3.83,9.2-7.4,9.24-2.16,0-5.26-2.32a.62.62,0,0,1-.24-.5c0-.51.23-.76.7-.76a.93.93,0,0,1,.35.08,7.72,7.72,0,0,0,3.21,1q2.9.07,6.39-8.63a45.81,45.81,0,0,0,3.58-15.06A1.87,1.87,0,0,0,12.09,11a5.37,5.37,0,0,0-.76.07q-1.71.24-3.87,2.71a16,16,0,0,0-3.38,6.26,3.06,3.06,0,0,0-.13.87,2.29,2.29,0,0,0,.55,1.49c.33.33.66.67,1,1a.67.67,0,0,1,.24.44c0,.27-.22.41-.65.41a1,1,0,0,1-.44-.09,14.11,14.11,0,0,1-2.58-1.81,2.7,2.7,0,0,1-.83-1.94A7.79,7.79,0,0,1,2,17.62a19.43,19.43,0,0,1,3.38-5.17A11.86,11.86,0,0,1,9.25,9.31c.53-.23,1.6-.1,3.23.39a.56.56,0,0,1,.46-.19c.57,0,1.68.54,3.34,1.63C17,11.62,17.23,13.25,16.92,16Z"/><path class="cls-1" d="M35.46,22a19.19,19.19,0,0,1-.76,5.45c-.16.53-.38.79-.66.79a3.55,3.55,0,0,1-1.35-.87,1.06,1.06,0,0,1-.26-1.25A11.31,11.31,0,0,0,33,22.88c0-.27-.06-.41-.17-.41s-.46.26-.86.79a41.37,41.37,0,0,0-6.78,13.27c-.48,1.55-.89,2.33-1.23,2.33a9.24,9.24,0,0,1-1.72-.76c-.49-.25-.66-.73-.5-1.44a95.14,95.14,0,0,1,3.71-12.75,23.91,23.91,0,0,0-2,2.34.56.56,0,0,1-.48.26c-.25,0-.37-.11-.37-.33a.74.74,0,0,1,.17-.44c.71-.85,1.67-2.16,2.86-3.92.36-.64.73-1,1.09-1a4.73,4.73,0,0,1,1.59.61c.45.23.53.54.22.93a25.62,25.62,0,0,0-1.81,4.48c-.84,2.49-1.43,4.44-1.75,5.85a61.83,61.83,0,0,1,6.75-11.68c.48-.64.86-1,1.16-1a2.07,2.07,0,0,1,1.07.53,2.83,2.83,0,0,1,1.15.28A1.2,1.2,0,0,1,35.46,22Z"/><path class="cls-1" d="M46.33,23.52a87.29,87.29,0,0,1-2.73,9.8,15.53,15.53,0,0,0,1.75-2.08.4.4,0,0,1,.3-.19c.23,0,.26.2.09.61-.07.16-.69,1.16-1.83,3A21.53,21.53,0,0,0,42,38.36a.72.72,0,0,1-.72.5,3.23,3.23,0,0,1-1.41-.5c-.38-.2-.57-.36-.57-.46a1.76,1.76,0,0,1,.24-.57,36.12,36.12,0,0,0,2.62-6.94,39.41,39.41,0,0,0,1.55-7c0-.66,0-1-.2-1s-.36.17-.7.48l-1.35,1.27c-.48.44-.72.46-.72.07a.73.73,0,0,1,.2-.44,30.68,30.68,0,0,1,2.18-2.73,1,1,0,0,1,.67-.37,2.08,2.08,0,0,1,1,.48,8.14,8.14,0,0,1,1.11.33,1.2,1.2,0,0,1,.51,1.13A5.25,5.25,0,0,1,46.33,23.52ZM49.41,14a.73.73,0,0,1,.34.59c0,.42-.62,1.07-1.87,2a3.07,3.07,0,0,1-2.4.61,2.66,2.66,0,0,1-1.14-.48,1,1,0,0,1-.23-.27.25.25,0,0,1,0-.23c0-.06.13-.07.26,0A26.94,26.94,0,0,0,47,13.59q.51-.57.72-.57A4.46,4.46,0,0,1,49.41,14Z"/><path class="cls-1" d="M60,33.41Q60.05,36,57.08,37a4.24,4.24,0,0,1-.69,1.27,2.28,2.28,0,0,1-1.49.61,6.27,6.27,0,0,1-1.35-.06l-3.17-.48a.72.72,0,0,1-.63-.64c.06-.39.47-.62,1.22-.7,1-.07,2.56-.25,4.59-.54a2.25,2.25,0,0,0,1.61-1.29,2.67,2.67,0,0,0,.29-1.29A16,16,0,0,0,56.08,29a13.48,13.48,0,0,1-1.27-4.52c.12-1.82,1.8-3.08,5-3.8.32-.07.48.05.48.35s-.12.31-.35.42c-1.57.68-2.36,1.52-2.36,2.53a6.15,6.15,0,0,0,.22,1.47c.14.59.58,2,1.31,4.25A13.67,13.67,0,0,1,60,33.41Zm3.49-12.53A15.77,15.77,0,0,1,63,24a2.25,2.25,0,0,1-.44,1,2.83,2.83,0,0,1-.74.33,4.45,4.45,0,0,1-1,.3c-.22,0-.32-.14-.32-.43a3,3,0,0,1,.08-.64,9.49,9.49,0,0,0,.41-3c-.08-.56.08-.91.49-1.06a4.45,4.45,0,0,1,1.37-.54C63.25,19.94,63.48,20.25,63.48,20.88Z"/><path class="cls-1" d="M85.93,4.49a.6.6,0,0,1,.29.48c0,.26-.17.39-.5.39a1,1,0,0,1-.46-.13,3.74,3.74,0,0,0-1.51-.5c-.89,0-1.88.88-3,2.66Q75,16.78,72.25,32a37.68,37.68,0,0,1,8.14-10.91,2.81,2.81,0,0,1,1.44-.87,4.88,4.88,0,0,1,1.09.61,8.13,8.13,0,0,1,1.31.61,2.26,2.26,0,0,1,.57,1.75c0,.23,0,.48,0,.76a43.48,43.48,0,0,1-2.23,9.41c.45-.61,1.16-1.51,2.14-2.69a1,1,0,0,1,.59-.37c.16,0,.24.1.24.29a1.4,1.4,0,0,1-.29.74Q84,33.12,81.85,36.66c-.11.23-.4.84-.85,1.83-.19.47-.45.7-.78.7a3.37,3.37,0,0,1-1.64-.76c-.29-.21-.34-.53-.15-1q3.75-9.42,4-14.07c0-.89-.08-1.33-.37-1.33a2.93,2.93,0,0,0-1.2.74,24.8,24.8,0,0,0-4.13,4.8,40.6,40.6,0,0,0-5,9.28c-.32.9-.61,1.35-.89,1.35a3.41,3.41,0,0,1-1.46-.9A1.51,1.51,0,0,1,69,35.81a117.38,117.38,0,0,1,6.59-23.69c2-4.87,3.82-8.06,5.43-9.56A1.83,1.83,0,0,1,82.2,2a2.81,2.81,0,0,1,1.55.7Z"/><path class="cls-1" d="M80.91,52.91a2.54,2.54,0,0,0-.55-1.62,9.93,9.93,0,0,0-1.75-1.5,3.62,3.62,0,0,0-3.44-2.56,20.78,20.78,0,0,0-4.87,1q-1.48-1.59-2.07-1.59c-.3,0-.44.29-.44.87a8,8,0,0,1-.26,1.75,41.6,41.6,0,0,0-5.92,2.83,25.4,25.4,0,0,0-4.19,2.8,4.07,4.07,0,0,0-1.61,2.79,2.18,2.18,0,0,0,.28,1q1.92,3.8,2.6,3.8c.32,0,.48-.21.48-.61a1.1,1.1,0,0,0-.09-.42,10.47,10.47,0,0,1-.41-1.11,2.51,2.51,0,0,1-.16-.9q0-3.18,8.21-6.87A150.65,150.65,0,0,1,58.8,75.09c-.43.1-.66.27-.7.52s.13.67.57,1.09a2.9,2.9,0,0,0,1.76,1,1.43,1.43,0,0,0,1-.48,9.71,9.71,0,0,1,2.35-1.7,3.67,3.67,0,0,1,1.82-.61c.51,0,.76-.13.76-.53a3.48,3.48,0,0,0-.5-1.39c-.41-.77-.82-1.2-1.25-1.27a1.75,1.75,0,0,0-1,.33,13.46,13.46,0,0,1-1.29.74q3.06-7.87,6.7-21a19.39,19.39,0,0,1,6.53-1.48,3.57,3.57,0,0,1,1.42,0c1,.24,1.44,1,1.26,2.22a16.06,16.06,0,0,1-2.86,6.9,18.34,18.34,0,0,1-4,4.37,5,5,0,0,1-3,.8c-.8,0-1.2.15-1.2.44s.17.36.52.5a13.61,13.61,0,0,0,3.36,1.07,4.25,4.25,0,0,0,2.45-.89,19.25,19.25,0,0,0,4.16-4.91,20.81,20.81,0,0,0,3-6A8.18,8.18,0,0,0,80.91,52.91Z"/><path class="cls-1" d="M95.18,60.18A3.24,3.24,0,0,0,94,59.72a1.38,1.38,0,0,0-.7.26,7,7,0,0,0-1.59,2.62,57.85,57.85,0,0,1-3.41,5.72,52.34,52.34,0,0,1-4.86,6.77c-.53.53-.9.8-1.14.8s-.39-.31-.39-.94a28.41,28.41,0,0,1,1.35-7.39,23.52,23.52,0,0,1,2.32-5.85l.48-.72c0-.14-.11-.27-.31-.4a3.9,3.9,0,0,0-1.72-.7,1.09,1.09,0,0,0-.83.48A10.51,10.51,0,0,0,81.78,63a16.8,16.8,0,0,1-1.4,2.27c-.16.24-.18.41-.06.5s.24,0,.43-.13l1.12-1A35,35,0,0,0,79.6,75a3.37,3.37,0,0,0,0,.52c0,.87.5,1.4,1.51,1.57a2.85,2.85,0,0,0,1.44.51,1.82,1.82,0,0,0,1.37-.72A77.72,77.72,0,0,0,91,66.77,53.45,53.45,0,0,0,88.74,75a1.58,1.58,0,0,0,.46,1.7,4.3,4.3,0,0,0,1.7.86c.29,0,.53-.37.7-1.1a34.65,34.65,0,0,1,1.83-4.91.61.61,0,0,0,.07-.28q0-.42-.33-.42c-.16,0-.27.11-.35.31-.58,1.11-1.07,2-1.48,2.73a45.16,45.16,0,0,1,4.34-12.66A.71.71,0,0,1,95.9,61q.15-.11.15-.18C96.05,60.71,95.76,60.48,95.18,60.18Z"/><path class="cls-1" d="M172.35,60.18l-.11.1C184.07,51.75,187,46.07,172.35,60.18Z"/><path class="cls-1" d="M109.45,75.27a23.25,23.25,0,0,0,2.43-4.4A26.91,26.91,0,0,0,114,62.56a2.63,2.63,0,0,0-1.76-2.77,3.58,3.58,0,0,0-1.51-.62,3.38,3.38,0,0,0-2.12,1.07,31.46,31.46,0,0,0-4.71,5.48c-.74,1.06-1.87,2.88-3.38,5.44q2.64-15.49,8.53-25c1.11-1.79,2.11-2.68,3-2.68a3.7,3.7,0,0,1,1.51.52.76.76,0,0,0,.41.13c.35,0,.53-.14.53-.43a.55.55,0,0,0-.27-.44L112,41.43a2.82,2.82,0,0,0-1.55-.72,1.85,1.85,0,0,0-1.22.59q-2.4,2.21-5.41,9.56A120.3,120.3,0,0,0,97.3,74.54a3.66,3.66,0,0,0-.11.85,1.52,1.52,0,0,0,.44,1.14q.15.12,1.26.87a.91.91,0,0,0,.46.2c.25,0,.45-.27.61-.81a37,37,0,0,1,4.26-8.8,30.51,30.51,0,0,1,5.45-6.59,1.6,1.6,0,0,1,1-.46c.5,0,.76.38.76,1.14a19.11,19.11,0,0,1-1.4,6.63,19.12,19.12,0,0,1-2.73,5.22,2.26,2.26,0,0,1-1.72,1,3.7,3.7,0,0,1-2.2-1.1,1.13,1.13,0,0,0-.72-.3c-.25,0-.38.11-.38.33a1.15,1.15,0,0,0,.29.63,18.18,18.18,0,0,0,1.71,1.95h0s.09.09.25.22a4.73,4.73,0,0,0,1.28.89,7.71,7.71,0,0,0,2.55.93c10.9,1.82,38.94,5.67,63.9-18.25C158.64,70.09,133.29,83.66,109.45,75.27Z"/></g></g></svg>